<svg version="1.1" viewBox="0.0 0.0 115 151" fill="none" stroke="none" stroke-linecap="square" stroke-miterlimit="10" xmlns:xlink="http://www.w3.org/1999/xlink" xmlns="http://www.w3.org/2000/svg"><clipPath id="p.0"><path d="m0 0l115.7874 0l0 151.27296l-115.7874 0l0 -151.27296z" clip-rule="nonzero"/></clipPath><g clip-path="url(#p.0)"><path fill="#000000" fill-opacity="0.0" d="m0 0l115.7874 0l0 151.27296l-115.7874 0z" fill-rule="evenodd"/><path fill="#000000" fill-opacity="0.0" d="m-24.82677 -54.14173l85.44882 0l0 236.8504l-85.44882 0z" fill-rule="evenodd"/><path fill="#c8bfe2" d="m53.61073 146.85826l-17.1875 0l0 -89.15624q0 -4.203125 0.046875 -8.984375q0.046875 -4.796875 0.1875 -9.53125q0.15625 -4.734375 0.296875 -9.078127q0.15625 -4.34375 0.25 -7.671875q-1.65625 1.765625 -2.9375 3.03125q-1.265625 1.265625 -2.59375 2.4375q-1.3125 1.171875 -2.78125 2.5q-1.453125 1.3125 -3.5 3.078127l-14.453126 11.8125l-9.375 -12.015625l37.390625 -29.203125l14.65625 0l0 142.78125z" fill-rule="nonzero"/><path fill="#000000" fill-opacity="0.0" d="m32.377953 28.440945l85.44882 0l0 71.68504l-85.44882 0z" fill-rule="evenodd"/><path fill="#59b0a2" d="m95.7217 110.16283q0 8.578125 -1.390625 15.5q-1.375 6.90625 -4.515625 11.78125q-3.125 4.875 -8.140625 7.46875q-5.0 2.59375 -12.234375 2.59375q-7.359375 0 -12.1875 -2.515625q-4.8125 -2.515625 -7.640625 -7.234375q-2.8125 -4.734375 -3.953125 -11.5625q-1.125 -6.84375 -1.125 -15.484375q0 -8.515625 1.40625 -15.453125q1.40625 -6.953125 4.53125 -11.8125q3.140625 -4.875 8.140625 -7.46875q5.015625 -2.609375 12.203125 -2.609375q7.359375 0 12.203125 2.515625q4.84375 2.515625 7.65625 7.25q2.828125 4.734375 3.9375 11.5625q1.109375 6.828125 1.109375 15.46875zm-14.671875 0.71875q0 -5.09375 -0.28125 -8.984375q-0.265625 -3.90625 -0.859375 -6.78125q-0.578125 -2.890625 -1.4375 -4.875q-0.84375 -1.984375 -2.0625 -3.171875q-1.21875 -1.203125 -2.765625 -1.703125q-1.546875 -0.5 -3.4375 -0.5q-3.265625 0 -5.40625 1.578125q-2.125 1.578125 -3.375 4.734375q-1.234375 3.15625 -1.734375 7.859375q-0.5 4.703125 -0.5 10.953125q0 7.640625 0.609375 12.65625q0.609375 5.0 1.90625 7.96875q1.3125 2.953125 3.359375 4.140625q2.046875 1.1875 4.921875 1.1875q2.15625 0 3.8125 -0.6875q1.671875 -0.6875 2.90625 -2.0625q1.25 -1.390625 2.078125 -3.484375q0.828125 -2.109375 1.34375 -4.875q0.53125 -2.78125 0.71875 -6.265625q0.203125 -3.484375 0.203125 -7.6875z" fill-rule="nonzero"/><path fill="#000000" fill-opacity="0.0" d="m593.2231 301.92126l141.98425 0l0 185.92126l-141.98425 0z" fill-rule="evenodd"/><path fill="#000000" fill-opacity="0.0" d="m32.377953 -39.089237l94.58268 0l0 116.66142l-94.58268 0z" fill-rule="evenodd"/><path fill="#5669ae" d="m95.7217 42.63264q0 8.578125 -1.390625 15.5q-1.375 6.906246 -4.515625 11.781246q-3.125 4.875 -8.140625 7.46875q-5.0 2.59375 -12.234375 2.59375q-7.359375 0 -12.1875 -2.515625q-4.8125 -2.515625 -7.640625 -7.234375q-2.8125 -4.734375 -3.953125 -11.562496q-1.125 -6.84375 -1.125 -15.484375q0 -8.515625 1.40625 -15.453127q1.40625 -6.953125 4.53125 -11.8125q3.140625 -4.875 8.140625 -7.46875q5.015625 -2.6093745 12.203125 -2.6093745q7.359375 0 12.203125 2.5156245q4.84375 2.515625 7.65625 7.25q2.828125 4.734375 3.9375 11.5625q1.109375 6.828127 1.109375 15.468752zm-14.671875 0.71875q0 -5.09375 -0.28125 -8.984375q-0.265625 -3.906252 -0.859375 -6.781252q-0.578125 -2.890625 -1.4375 -4.875q-0.84375 -1.984375 -2.0625 -3.171875q-1.21875 -1.203125 -2.765625 -1.703125q-1.546875 -0.5 -3.4375 -0.5q-3.265625 0 -5.40625 1.578125q-2.125 1.578125 -3.375 4.734375q-1.234375 3.15625 -1.734375 7.859375q-0.5 4.703127 -0.5 10.953127q0 7.640625 0.609375 12.65625q0.609375 5.0 1.90625 7.96875q1.3125 2.9531212 3.359375 4.140621q2.046875 1.1875 4.921875 1.1875q2.15625 0 3.8125 -0.6875q1.671875 -0.6875 2.90625 -2.0625q1.25 -1.390625 2.078125 -3.4843712q0.828125 -2.109375 1.34375 -4.875q0.53125 -2.78125 0.71875 -6.265625q0.203125 -3.484375 0.203125 -7.6875z" fill-rule="nonzero"/></g></svg>